<svg width="20" height="20" viewBox="0 0 20 20" fill="none" xmlns="http://www.w3.org/2000/svg">
<path d="M10.75 7.25V6.5H9.25V7.25H10H10.75ZM12.2978 1.70175L11.7675 2.23206C12.7443 3.20895 12.7439 4.79238 11.7678 5.76768L12.2978 6.29825L12.8279 6.82882C14.3908 5.26734 14.3905 2.73381 12.8282 1.17144L12.2978 1.70175ZM12.2978 6.29825L11.7678 5.76768C10.7906 6.74396 9.20716 6.74408 8.23229 5.7682L7.70168 6.29825L7.17108 6.8283C8.7328 8.39166 11.266 8.3893 12.8279 6.82882L12.2978 6.29825ZM7.70168 6.29825L8.23229 5.7682C7.25605 4.79092 7.25593 3.20729 8.23177 2.23232L7.70168 1.70175L7.1716 1.17118C5.60837 2.73299 5.61074 5.26632 7.17108 6.8283L7.70168 6.29825ZM7.70168 1.70175L8.23177 2.23232C9.2088 1.25618 10.7912 1.25569 11.7675 2.23206L12.2978 1.70175L12.8282 1.17144C11.2654 -0.391432 8.73364 -0.389443 7.1716 1.17118L7.70168 1.70175ZM10 7.25H9.25V15.25H10H10.75V7.25H10ZM19.25 15.4996H18.5C18.5 15.7485 18.3787 16.0588 18.0041 16.4178C17.6276 16.7787 17.043 17.1383 16.259 17.4562C14.6948 18.0903 12.4823 18.4996 10 18.4996V19.2496V19.9996C12.6264 19.9996 15.0389 19.5694 16.8225 18.8463C17.7124 18.4855 18.4825 18.0371 19.0421 17.5007C19.6036 16.9625 20 16.2862 20 15.4996H19.25ZM10 19.2496V18.4996C7.51773 18.4996 5.30522 18.0903 3.74104 17.4562C2.95702 17.1383 2.37244 16.7787 1.99588 16.4178C1.62129 16.0588 1.5 15.7485 1.5 15.4996H0.75H0C0 16.2862 0.396379 16.9625 0.957939 17.5007C1.51753 18.0371 2.28759 18.4855 3.17748 18.8463C4.96115 19.5694 7.37363 19.9996 10 19.9996V19.2496ZM0.75 15.4996H1.5C1.5 15.0729 1.88689 14.4554 3.08398 13.8421C4.22381 13.2581 5.87598 12.805 7.82547 12.6075L7.74987 11.8613L7.67426 11.1151C5.60256 11.3251 3.7548 11.8129 2.39999 12.5071C1.10245 13.1719 0 14.1698 0 15.4996H0.75ZM12.2501 11.8613L12.1745 12.6075C14.124 12.805 15.7762 13.2581 16.916 13.8421C18.1131 14.4554 18.5 15.0729 18.5 15.4996H19.25H20C20 14.1698 18.8976 13.1719 17.6 12.5071C16.2452 11.8129 14.3974 11.3251 12.3257 11.1151L12.2501 11.8613Z" fill="#2B2B2B"/>
</svg>
