<svg width="18" height="18" viewBox="0 0 18 18" fill="none" xmlns="http://www.w3.org/2000/svg">
<path d="M15.84 7.40999L10.59 2.15999C10.1608 1.75273 9.59165 1.5257 8.99997 1.5257C8.4083 1.5257 7.83918 1.75273 7.40997 2.15999L2.15997 7.40999C1.73862 7.83186 1.50195 8.40373 1.50195 8.99999C1.50195 9.59624 1.73862 10.1681 2.15997 10.59L7.40997 15.84C7.83185 16.2613 8.40372 16.498 8.99997 16.498C9.59623 16.498 10.1681 16.2613 10.59 15.84L15.84 10.59C16.2613 10.1681 16.498 9.59624 16.498 8.99999C16.498 8.40373 16.2613 7.83186 15.84 7.40999ZM14.7825 9.53249L9.53247 14.7825C9.46275 14.8528 9.3798 14.9086 9.28841 14.9467C9.19701 14.9847 9.09898 15.0043 8.99997 15.0043C8.90096 15.0043 8.80294 14.9847 8.71154 14.9467C8.62015 14.9086 8.5372 14.8528 8.46747 14.7825L3.21747 9.53249C3.14718 9.46277 3.09138 9.37981 3.0533 9.28842C3.01523 9.19702 2.99562 9.099 2.99562 8.99999C2.99562 8.90098 3.01523 8.80295 3.0533 8.71155C3.09138 8.62016 3.14718 8.53721 3.21747 8.46749L8.46747 3.21749C8.5372 3.14719 8.62015 3.0914 8.71154 3.05332C8.80294 3.01524 8.90096 2.99564 8.99997 2.99564C9.09898 2.99564 9.19701 3.01524 9.28841 3.05332C9.3798 3.0914 9.46275 3.14719 9.53247 3.21749L14.7825 8.46749C14.8528 8.53721 14.9086 8.62016 14.9466 8.71155C14.9847 8.80295 15.0043 8.90098 15.0043 8.99999C15.0043 9.099 14.9847 9.19702 14.9466 9.28842C14.9086 9.37981 14.8528 9.46277 14.7825 9.53249ZM10.6575 6.96749C10.5162 6.82626 10.3247 6.74692 10.125 6.74692C9.92525 6.74692 9.7337 6.82626 9.59247 6.96749C9.45125 7.10871 9.3719 7.30026 9.3719 7.49999C9.3719 7.69971 9.45125 7.89126 9.59247 8.03249L9.81747 8.24999H7.12497C6.92606 8.24999 6.7353 8.32901 6.59464 8.46966C6.45399 8.61031 6.37497 8.80107 6.37497 8.99999V10.5C6.37497 10.6989 6.45399 10.8897 6.59464 11.0303C6.7353 11.171 6.92606 11.25 7.12497 11.25C7.32389 11.25 7.51465 11.171 7.6553 11.0303C7.79596 10.8897 7.87497 10.6989 7.87497 10.5V9.74999H9.81747L9.59247 9.96749C9.52218 10.0372 9.46638 10.1202 9.4283 10.2116C9.39023 10.3029 9.37062 10.401 9.37062 10.5C9.37062 10.599 9.39023 10.697 9.4283 10.7884C9.46638 10.8798 9.52218 10.9628 9.59247 11.0325C9.6622 11.1028 9.74515 11.1586 9.83654 11.1967C9.92794 11.2347 10.026 11.2543 10.125 11.2543C10.224 11.2543 10.322 11.2347 10.4134 11.1967C10.5048 11.1586 10.5878 11.1028 10.6575 11.0325L12.1575 9.53249C12.2278 9.46277 12.2836 9.37981 12.3216 9.28842C12.3597 9.19702 12.3793 9.099 12.3793 8.99999C12.3793 8.90098 12.3597 8.80295 12.3216 8.71155C12.2836 8.62016 12.2278 8.53721 12.1575 8.46749L10.6575 6.96749Z" fill="white"/>
</svg>
