<svg width="18" height="18" viewBox="0 0 18 18" fill="none" xmlns="http://www.w3.org/2000/svg">
<g clip-path="url(#clip0_794_3138)">
<path d="M1.3125 9C1.3125 11.1746 3.07538 12.9375 5.25 12.9375C6.66839 12.9375 7.91161 12.1875 8.60475 11.0625H10.5L12 10.125L13.5 11.0625H15.375L17.0625 9L15.375 6.9375H8.60475C7.91161 5.81247 6.66839 5.0625 5.25 5.0625C3.07538 5.0625 1.3125 6.82538 1.3125 9Z" stroke="black" stroke-width="1.5"/>
<path d="M5.8125 9C5.8125 9.31066 5.56066 9.5625 5.25 9.5625C4.93934 9.5625 4.6875 9.31066 4.6875 9C4.6875 8.68934 4.93934 8.4375 5.25 8.4375C5.56066 8.4375 5.8125 8.68934 5.8125 9Z" stroke="black" stroke-width="1.5"/>
</g>
<defs>
<clipPath id="clip0_794_3138">
<rect width="18" height="18" fill="white"/>
</clipPath>
</defs>
</svg>
