<?xml version="1.0" standalone="no"?>
<!DOCTYPE svg PUBLIC "-//W3C//DTD SVG 20010904//EN"
 "http://www.w3.org/TR/2001/REC-SVG-20010904/DTD/svg10.dtd">
<svg version="1.0" xmlns="http://www.w3.org/2000/svg"
 width="512.000000pt" height="512.000000pt" viewBox="0 0 512.000000 512.000000"
 preserveAspectRatio="xMidYMid meet">

<g transform="translate(0.000000,512.000000) scale(0.100000,-0.100000)"
fill="#000000" stroke="none">
<path d="M2423 4770 c-268 -34 -510 -154 -697 -347 -96 -99 -149 -174 -211
-298 -291 -586 -41 -1295 557 -1575 179 -83 406 -122 596 -102 417 46 753 278
937 647 340 683 -64 1505 -816 1659 -97 20 -273 27 -366 16z m322 -249 c365
-75 651 -363 727 -731 26 -122 20 -307 -12 -419 -91 -320 -328 -561 -645 -657
-83 -25 -104 -28 -255 -28 -151 0 -172 3 -255 28 -314 95 -549 332 -641 643
-37 126 -44 302 -16 433 105 507 597 834 1097 731z"/>
<path d="M2376 2199 c-533 -41 -1033 -266 -1394 -627 -260 -260 -437 -598
-497 -946 -22 -128 -20 -207 6 -239 30 -39 85 -53 131 -34 51 21 69 55 79 144
28 249 107 464 248 675 282 422 775 710 1351 789 127 17 414 15 554 -5 601
-85 1118 -419 1384 -894 100 -179 155 -348 182 -564 14 -112 44 -148 126 -148
28 0 44 8 71 35 l36 36 -6 97 c-32 489 -348 995 -817 1307 -336 224 -690 343
-1110 375 -150 11 -186 11 -344 -1z"/>
</g>
</svg>
