<svg width="24" height="24" viewBox="0 0 24 24" fill="none" xmlns="http://www.w3.org/2000/svg">
<path d="M11 3C14.866 3 18 6.13401 18 10C18 11.7002 17.3928 13.258 16.3848 14.4707L20.207 18.293L20.2754 18.3691C20.5957 18.7619 20.5731 19.3409 20.207 19.707C19.8409 20.0731 19.2619 20.0957 18.8691 19.7754L18.793 19.707L14.8994 15.8135C13.785 16.5625 12.4437 17 11 17C7.13401 17 4 13.866 4 10C4 6.13401 7.13401 3 11 3ZM11 4.5C7.96243 4.5 5.5 6.96243 5.5 10C5.5 13.0376 7.96243 15.5 11 15.5C14.0376 15.5 16.5 13.0376 16.5 10C16.5 6.96243 14.0376 4.5 11 4.5Z" fill="#6C6C6C"/>
</svg>
