<svg width="22" height="22" viewBox="0 0 22 22" fill="none" xmlns="http://www.w3.org/2000/svg">
<path d="M8.45617 5.06456L5.70044 4.42863L4.42856 5.7005L5.0645 8.45623L2.52075 10.1521V11.8479L5.0645 13.5437L4.42856 16.2995L5.70044 17.5713L8.45617 16.9354L10.152 19.4791H11.8478L13.5437 16.9354L16.2994 17.5713L17.5713 16.2995L16.9353 13.5437L19.4791 11.8479V10.1521L16.9353 8.45623L17.5713 5.7005L16.2994 4.42863L13.5437 5.06456L11.8478 2.52081H10.152L8.45617 5.06456Z" stroke="#101010" stroke-width="1.5"/>
<path d="M13.5208 11C13.5208 12.3922 12.3921 13.5208 10.9999 13.5208C9.6077 13.5208 8.47909 12.3922 8.47909 11C8.47909 9.60776 9.6077 8.47915 10.9999 8.47915C12.3921 8.47915 13.5208 9.60776 13.5208 11Z" stroke="#101010" stroke-width="1.5"/>
</svg>
