<svg width="16" height="16" viewBox="0 0 16 16" fill="none" xmlns="http://www.w3.org/2000/svg">
<path d="M12.5625 2.8125L9.83691 5.53809M5.53417 9.84083L2.8125 12.5625M2.8125 2.8125L5.53417 5.53417M9.83691 9.83691L12.5625 12.5625M14.625 7.6875C14.625 11.519 11.519 14.625 7.6875 14.625C3.85602 14.625 0.75 11.519 0.75 7.6875C0.75 3.85602 3.85602 0.75 7.6875 0.75C11.519 0.75 14.625 3.85602 14.625 7.6875ZM10.875 7.6875C10.875 9.44791 9.44791 10.875 7.6875 10.875C5.92709 10.875 4.5 9.44791 4.5 7.6875C4.5 5.92709 5.92709 4.5 7.6875 4.5C9.44791 4.5 10.875 5.92709 10.875 7.6875Z" stroke="#2B2B2B" stroke-width="1.5"/>
</svg>
